<mxfile host="65bd71144e">
    <diagram id="8iJ2KA9qQhV0-p_5f5TD" name="Page-1">
        <mxGraphModel dx="2054" dy="828" grid="1" gridSize="10" guides="1" tooltips="1" connect="1" arrows="1" fold="1" page="1" pageScale="1" pageWidth="850" pageHeight="1100" math="0" shadow="0">
            <root>
                <mxCell id="0"/>
                <mxCell id="1" parent="0"/>
                <mxCell id="20" value="" style="edgeStyle=none;html=1;" parent="1" source="3" target="19" edge="1">
                    <mxGeometry relative="1" as="geometry"/>
                </mxCell>
                <mxCell id="3" value="" style="sketch=0;html=1;aspect=fixed;strokeColor=none;shadow=0;align=center;verticalAlign=top;fillColor=#3B8DF1;shape=mxgraph.gcp2.calculator" parent="1" vertex="1">
                    <mxGeometry x="10" y="537.9" width="330" height="244.2" as="geometry"/>
                </mxCell>
                <mxCell id="6" value="RESULT" style="text;html=1;align=center;verticalAlign=middle;resizable=0;points=[];autosize=1;strokeColor=none;fillColor=none;" parent="1" vertex="1">
                    <mxGeometry x="80" y="577.9" width="60" height="20" as="geometry"/>
                </mxCell>
                <mxCell id="7" value="1" style="text;html=1;align=center;verticalAlign=middle;resizable=0;points=[];autosize=1;strokeColor=none;fillColor=none;" parent="1" vertex="1">
                    <mxGeometry x="45" y="617.9" width="20" height="20" as="geometry"/>
                </mxCell>
                <mxCell id="8" value="2" style="text;html=1;align=center;verticalAlign=middle;resizable=0;points=[];autosize=1;strokeColor=none;fillColor=none;" parent="1" vertex="1">
                    <mxGeometry x="85" y="620" width="20" height="20" as="geometry"/>
                </mxCell>
                <mxCell id="9" value="3" style="text;html=1;align=center;verticalAlign=middle;resizable=0;points=[];autosize=1;strokeColor=none;fillColor=none;" parent="1" vertex="1">
                    <mxGeometry x="125" y="617.9" width="20" height="20" as="geometry"/>
                </mxCell>
                <mxCell id="10" value="4" style="text;html=1;align=center;verticalAlign=middle;resizable=0;points=[];autosize=1;strokeColor=none;fillColor=none;" parent="1" vertex="1">
                    <mxGeometry x="45" y="657.9" width="20" height="20" as="geometry"/>
                </mxCell>
                <mxCell id="11" value="5" style="text;html=1;align=center;verticalAlign=middle;resizable=0;points=[];autosize=1;strokeColor=none;fillColor=none;" parent="1" vertex="1">
                    <mxGeometry x="85" y="657.9" width="20" height="20" as="geometry"/>
                </mxCell>
                <mxCell id="12" value="6" style="text;html=1;align=center;verticalAlign=middle;resizable=0;points=[];autosize=1;strokeColor=none;fillColor=none;" parent="1" vertex="1">
                    <mxGeometry x="125" y="657.9" width="20" height="20" as="geometry"/>
                </mxCell>
                <mxCell id="13" value="7" style="text;html=1;align=center;verticalAlign=middle;resizable=0;points=[];autosize=1;strokeColor=none;fillColor=none;" parent="1" vertex="1">
                    <mxGeometry x="45" y="697.9" width="20" height="20" as="geometry"/>
                </mxCell>
                <mxCell id="14" value="8" style="text;html=1;align=center;verticalAlign=middle;resizable=0;points=[];autosize=1;strokeColor=none;fillColor=none;" parent="1" vertex="1">
                    <mxGeometry x="85" y="697.9" width="20" height="20" as="geometry"/>
                </mxCell>
                <mxCell id="15" value="9" style="text;html=1;align=center;verticalAlign=middle;resizable=0;points=[];autosize=1;strokeColor=none;fillColor=none;" parent="1" vertex="1">
                    <mxGeometry x="125" y="697.9" width="20" height="20" as="geometry"/>
                </mxCell>
                <mxCell id="18" value="=" style="text;html=1;align=center;verticalAlign=middle;resizable=0;points=[];autosize=1;strokeColor=none;fillColor=none;" parent="1" vertex="1">
                    <mxGeometry x="165" y="697.9" width="20" height="20" as="geometry"/>
                </mxCell>
                <mxCell id="22" value="" style="edgeStyle=none;html=1;" parent="1" source="19" target="21" edge="1">
                    <mxGeometry relative="1" as="geometry"/>
                </mxCell>
                <mxCell id="30" style="edgeStyle=none;html=1;entryX=0;entryY=1;entryDx=0;entryDy=0;" parent="1" source="19" target="28" edge="1">
                    <mxGeometry relative="1" as="geometry"/>
                </mxCell>
                <mxCell id="19" value="User clicks on 2 numbers" style="whiteSpace=wrap;html=1;verticalAlign=top;fillColor=#3B8DF1;strokeColor=none;sketch=0;shadow=0;" parent="1" vertex="1">
                    <mxGeometry x="-290" y="630" width="120" height="60" as="geometry"/>
                </mxCell>
                <mxCell id="24" value="" style="edgeStyle=none;html=1;" parent="1" source="21" target="23" edge="1">
                    <mxGeometry relative="1" as="geometry"/>
                </mxCell>
                <mxCell id="29" value="" style="edgeStyle=none;html=1;" parent="1" source="21" target="28" edge="1">
                    <mxGeometry relative="1" as="geometry"/>
                </mxCell>
                <mxCell id="21" value="user clicks on operation" style="rounded=1;whiteSpace=wrap;html=1;verticalAlign=top;fillColor=#3B8DF1;strokeColor=none;sketch=0;shadow=0;" parent="1" vertex="1">
                    <mxGeometry x="-290" y="490" width="120" height="60" as="geometry"/>
                </mxCell>
                <mxCell id="26" value="" style="edgeStyle=none;html=1;" parent="1" source="23" target="25" edge="1">
                    <mxGeometry relative="1" as="geometry"/>
                </mxCell>
                <mxCell id="23" value="User clicks '=' button JS computes" style="rounded=1;whiteSpace=wrap;html=1;verticalAlign=top;fillColor=#3B8DF1;strokeColor=none;sketch=0;shadow=0;" parent="1" vertex="1">
                    <mxGeometry x="-290" y="350" width="120" height="60" as="geometry"/>
                </mxCell>
                <mxCell id="25" value="Result Given" style="whiteSpace=wrap;html=1;verticalAlign=top;fillColor=#3B8DF1;strokeColor=none;rounded=1;sketch=0;shadow=0;" parent="1" vertex="1">
                    <mxGeometry x="-90" y="350" width="120" height="60" as="geometry"/>
                </mxCell>
                <mxCell id="27" value="CE" style="text;html=1;align=center;verticalAlign=middle;resizable=0;points=[];autosize=1;strokeColor=none;fillColor=none;" parent="1" vertex="1">
                    <mxGeometry x="155" y="620" width="30" height="20" as="geometry"/>
                </mxCell>
                <mxCell id="28" value="clicks CE to cancel and reset the calculator" style="whiteSpace=wrap;html=1;verticalAlign=top;fillColor=#3B8DF1;strokeColor=none;rounded=1;sketch=0;shadow=0;" parent="1" vertex="1">
                    <mxGeometry x="-140" y="550" width="120" height="60" as="geometry"/>
                </mxCell>
                <mxCell id="32" value="" style="edgeStyle=none;html=1;" parent="1" source="31" target="3" edge="1">
                    <mxGeometry relative="1" as="geometry">
                        <mxPoint x="140" y="530" as="targetPoint"/>
                    </mxGeometry>
                </mxCell>
                <mxCell id="31" value="GUI" style="text;html=1;align=center;verticalAlign=middle;resizable=0;points=[];autosize=1;strokeColor=none;fillColor=none;" parent="1" vertex="1">
                    <mxGeometry x="90" y="500" width="40" height="20" as="geometry"/>
                </mxCell>
            </root>
        </mxGraphModel>
    </diagram>
</mxfile>